<svg width="160" height="45" viewBox="0 0 160 45" fill="none" xmlns="http://www.w3.org/2000/svg">
<path d="M43.975 29L43.25 25.425H39.125L38.425 29H35.225C35.9583 25.95 36.7 23.175 37.45 20.675C38.2 18.1583 38.925 15.775 39.625 13.525H42.975C43.7083 15.7917 44.4333 18.2 45.15 20.75C45.8833 23.2833 46.5917 26.0333 47.275 29H43.975ZM41.225 16.525C41.0583 17.1083 40.9 17.6667 40.75 18.2C40.6167 18.7167 40.4833 19.2333 40.35 19.75C40.2333 20.25 40.1167 20.7583 40 21.275C39.9 21.7917 39.8 22.325 39.7 22.875H42.725C42.625 22.325 42.525 21.7917 42.425 21.275C42.325 20.7583 42.2083 20.25 42.075 19.75C41.9583 19.2333 41.825 18.7167 41.675 18.2C41.5417 17.6667 41.3917 17.1083 41.225 16.525ZM54.425 26.5C54.5083 26.5167 54.6 26.525 54.7 26.525C54.8 26.525 54.8917 26.525 54.975 26.525C55.675 26.525 56.2583 26.3917 56.725 26.125C57.2083 25.8583 57.5917 25.4917 57.875 25.025C58.175 24.5583 58.3833 24.0083 58.5 23.375C58.6333 22.725 58.7 22.0167 58.7 21.25C58.7 20.5833 58.65 19.9333 58.55 19.3C58.45 18.6667 58.275 18.1083 58.025 17.625C57.775 17.1417 57.4333 16.7583 57 16.475C56.5667 16.175 56.0083 16.025 55.325 16.025C55.1917 16.025 55.0417 16.0333 54.875 16.05C54.7083 16.05 54.5583 16.0667 54.425 16.1V26.5ZM61.825 21.25C61.825 22.6833 61.6417 23.9083 61.275 24.925C60.925 25.925 60.4333 26.7417 59.8 27.375C59.1667 28.0083 58.4083 28.475 57.525 28.775C56.6583 29.0583 55.7 29.2 54.65 29.2C54.1 29.2 53.5583 29.1667 53.025 29.1C52.5083 29.05 51.95 28.9583 51.35 28.825V13.725C52.05 13.575 52.7083 13.475 53.325 13.425C53.9417 13.375 54.5167 13.35 55.05 13.35C56.0667 13.35 56.9917 13.5 57.825 13.8C58.675 14.1 59.3917 14.575 59.975 15.225C60.5583 15.8583 61.0083 16.675 61.325 17.675C61.6583 18.6583 61.825 19.85 61.825 21.25ZM69.425 26.5C69.5083 26.5167 69.6 26.525 69.7 26.525C69.8 26.525 69.8917 26.525 69.975 26.525C70.675 26.525 71.2583 26.3917 71.725 26.125C72.2083 25.8583 72.5917 25.4917 72.875 25.025C73.175 24.5583 73.3833 24.0083 73.5 23.375C73.6333 22.725 73.7 22.0167 73.7 21.25C73.7 20.5833 73.65 19.9333 73.55 19.3C73.45 18.6667 73.275 18.1083 73.025 17.625C72.775 17.1417 72.4333 16.7583 72 16.475C71.5667 16.175 71.0083 16.025 70.325 16.025C70.1917 16.025 70.0417 16.0333 69.875 16.05C69.7083 16.05 69.5583 16.0667 69.425 16.1V26.5ZM76.825 21.25C76.825 22.6833 76.6417 23.9083 76.275 24.925C75.925 25.925 75.4333 26.7417 74.8 27.375C74.1667 28.0083 73.4083 28.475 72.525 28.775C71.6583 29.0583 70.7 29.2 69.65 29.2C69.1 29.2 68.5583 29.1667 68.025 29.1C67.5083 29.05 66.95 28.9583 66.35 28.825V13.725C67.05 13.575 67.7083 13.475 68.325 13.425C68.9417 13.375 69.5167 13.35 70.05 13.35C71.0667 13.35 71.9917 13.5 72.825 13.8C73.675 14.1 74.3917 14.575 74.975 15.225C75.5583 15.8583 76.0083 16.675 76.325 17.675C76.6583 18.6583 76.825 19.85 76.825 21.25ZM96.575 29V13.525H106.05V16.075H99.65V19.825H105.25V22.375H99.65V29H96.575ZM115.35 13.35C116.233 13.35 117.033 13.45 117.75 13.65C118.467 13.85 119.083 14.1583 119.6 14.575C120.117 14.9917 120.508 15.525 120.775 16.175C121.058 16.8083 121.2 17.5583 121.2 18.425C121.2 19.325 121.017 20.1417 120.65 20.875C120.283 21.6083 119.675 22.1667 118.825 22.55C119.108 22.9833 119.408 23.4667 119.725 24C120.042 24.5167 120.35 25.0667 120.65 25.65C120.95 26.2167 121.233 26.7917 121.5 27.375C121.783 27.9417 122.025 28.4833 122.225 29H119C118.617 28 118.167 27.0417 117.65 26.125C117.15 25.1917 116.608 24.25 116.025 23.3H114.425V29H111.35V13.75C111.65 13.6833 111.975 13.625 112.325 13.575C112.692 13.5083 113.058 13.4667 113.425 13.45C113.792 13.4167 114.142 13.3917 114.475 13.375C114.808 13.3583 115.1 13.35 115.35 13.35ZM118.075 18.4C118.075 17.5833 117.825 16.9833 117.325 16.6C116.825 16.2167 116.167 16.025 115.35 16.025C115.233 16.025 115.092 16.0333 114.925 16.05C114.758 16.05 114.592 16.0667 114.425 16.1V20.75H115.1C116.15 20.75 116.908 20.55 117.375 20.15C117.842 19.7333 118.075 19.15 118.075 18.4ZM128.8 21.25C128.8 22 128.825 22.7083 128.875 23.375C128.942 24.025 129.058 24.5917 129.225 25.075C129.408 25.5583 129.658 25.9417 129.975 26.225C130.292 26.5083 130.717 26.65 131.25 26.65C131.767 26.65 132.183 26.5083 132.5 26.225C132.833 25.9417 133.083 25.5583 133.25 25.075C133.433 24.575 133.55 24 133.6 23.35C133.667 22.7 133.7 22 133.7 21.25C133.7 20.5 133.667 19.8 133.6 19.15C133.55 18.4833 133.433 17.9083 133.25 17.425C133.083 16.9417 132.842 16.5583 132.525 16.275C132.208 15.9917 131.783 15.85 131.25 15.85C130.717 15.85 130.292 15.9917 129.975 16.275C129.658 16.5583 129.408 16.95 129.225 17.45C129.058 17.9333 128.942 18.5 128.875 19.15C128.825 19.8 128.8 20.5 128.8 21.25ZM125.675 21.25C125.675 18.5833 126.167 16.575 127.15 15.225C128.133 13.8583 129.5 13.175 131.25 13.175C133.067 13.175 134.45 13.8583 135.4 15.225C136.35 16.575 136.825 18.5833 136.825 21.25C136.825 23.9167 136.342 25.9333 135.375 27.3C134.408 28.65 133.042 29.325 131.275 29.325C129.458 29.325 128.067 28.65 127.1 27.3C126.15 25.9333 125.675 23.9167 125.675 21.25ZM144.025 13.525C144.142 13.875 144.283 14.325 144.45 14.875C144.633 15.425 144.825 16.0167 145.025 16.65C145.225 17.2833 145.425 17.925 145.625 18.575C145.825 19.225 146.017 19.825 146.2 20.375C146.4 19.7583 146.608 19.125 146.825 18.475C147.042 17.8083 147.25 17.175 147.45 16.575C147.65 15.9583 147.833 15.3833 148 14.85C148.167 14.3167 148.317 13.875 148.45 13.525H151C151.117 14.875 151.225 16.1917 151.325 17.475C151.442 18.7583 151.533 20.0333 151.6 21.3C151.683 22.55 151.75 23.8167 151.8 25.1C151.85 26.3667 151.892 27.6667 151.925 29H149.1L149.25 16.975L147.35 23.525H145.1L143.275 16.975L143.4 29H140.575C140.625 27.7333 140.675 26.4167 140.725 25.05C140.792 23.6833 140.858 22.325 140.925 20.975C140.992 19.625 141.067 18.3167 141.15 17.05C141.25 15.7833 141.358 14.6083 141.475 13.525H144.025Z" fill="white"/>
<rect x="0.5" y="0.5" width="159" height="44" rx="6.5" stroke="white"/>
<path d="M10 22H17M17 22H24M17 22V15M17 22V29" stroke="white" stroke-width="4" stroke-linecap="round" stroke-linejoin="round"/>
</svg>
