<svg width="61" height="78" viewBox="0 0 61 78" fill="none" xmlns="http://www.w3.org/2000/svg">
<path d="M20.474 39.0398C19.9711 38.8161 19.4175 38.7574 18.8834 38.8709C18.3493 38.9845 17.8586 39.2653 17.4733 39.6778L10.0233 47.6662H2.90355C2.17343 47.6662 1.47322 47.977 0.956945 48.5304C0.440674 49.0837 0.150635 49.8341 0.150635 50.6167V65.369C0.150635 66.1515 0.440674 66.902 0.956945 67.4553C1.47322 68.0086 2.17343 68.3195 2.90355 68.3195H10.0233L17.4733 76.3079C17.8584 76.721 18.3491 77.0024 18.8834 77.1164C19.4177 77.2304 19.9715 77.172 20.4748 76.9485C20.9781 76.725 21.4082 76.3465 21.7107 75.8608C22.0132 75.3752 22.1744 74.8043 22.1739 74.2204V41.7653C22.1738 41.1817 22.0123 40.6113 21.7097 40.1262C21.4071 39.641 20.9771 39.263 20.474 39.0398ZM16.6681 67.0987L13.11 63.2816C12.8541 63.0076 12.5504 62.7904 12.2162 62.6424C11.8821 62.4943 11.5239 62.4182 11.1623 62.4185H5.65646V53.5671H11.1623C11.5239 53.5674 11.8821 53.4914 12.2162 53.3433C12.5504 53.1952 12.8541 52.978 13.11 52.7041L16.6681 48.8869V67.0987ZM38.6914 57.9928C38.6886 60.5952 38.0522 63.1517 36.8452 65.4097C35.6382 67.6677 33.9023 69.5491 31.8091 70.868C31.1823 71.2024 30.4601 71.2684 29.7896 71.0523C29.119 70.8362 28.5504 70.3544 28.1996 69.7049C27.8488 69.0554 27.7421 68.287 27.9013 67.5562C28.0604 66.8254 28.4734 66.187 29.0562 65.771C30.3183 64.9726 31.3643 63.8352 32.091 62.4712C32.8176 61.1071 33.1998 59.5635 33.1998 57.9928C33.1998 56.4221 32.8176 54.8786 32.091 53.5145C31.3643 52.1505 30.3183 51.0131 29.0562 50.2147C28.4734 49.7987 28.0604 49.1603 27.9013 48.4295C27.7421 47.6986 27.8488 46.9303 28.1996 46.2808C28.5504 45.6313 29.119 45.1495 29.7896 44.9334C30.4601 44.7173 31.1823 44.7832 31.8091 45.1177C33.9023 46.4365 35.6382 48.3179 36.8452 50.576C38.0522 52.834 38.6886 55.3905 38.6914 57.9928ZM59.9095 21.975L40.6391 1.32169C40.3833 1.04779 40.0796 0.830592 39.7454 0.682513C39.4112 0.534435 39.0531 0.458375 38.6914 0.45868H5.65646C4.19623 0.45868 2.7958 1.08038 1.76325 2.18702C0.730711 3.29367 0.150635 4.79459 0.150635 6.35962V35.8643C0.150635 36.6468 0.440674 37.3973 0.956945 37.9506C1.47322 38.5039 2.17343 38.8148 2.90355 38.8148C3.63367 38.8148 4.33388 38.5039 4.85015 37.9506C5.36642 37.3973 5.65646 36.6468 5.65646 35.8643V6.35962H35.9385V24.0624C35.9385 24.8449 36.2286 25.5954 36.7448 26.1487C37.2611 26.7021 37.9613 27.0129 38.6914 27.0129H55.2089V71.27H44.1973C43.4671 71.27 42.7669 71.5808 42.2507 72.1341C41.7344 72.6874 41.4443 73.4379 41.4443 74.2204C41.4443 75.0029 41.7344 75.7534 42.2507 76.3067C42.7669 76.86 43.4671 77.1709 44.1973 77.1709H55.2089C56.6692 77.1709 58.0696 76.5492 59.1021 75.4425C60.1347 74.3359 60.7147 72.835 60.7147 71.27V24.0624C60.715 23.6749 60.6441 23.291 60.5059 22.9328C60.3677 22.5747 60.1651 22.2492 59.9095 21.975ZM41.4443 10.5308L51.317 21.112H41.4443V10.5308Z" fill="white"/>
</svg>
