<svg width="64" height="64" viewBox="0 0 64 64" fill="none" xmlns="http://www.w3.org/2000/svg">
<path d="M18.6666 45.3333H45.3333V40H18.6666V45.3333ZM32 37.3333L42.6666 26.6667L38.9333 22.9333L34.6666 27.0667V16H29.3333V27.0667L25.0666 22.9333L21.3333 26.6667L32 37.3333ZM32 58.6667C28.3111 58.6667 24.8444 57.9662 21.6 56.5653C18.3555 55.1644 15.5333 53.2649 13.1333 50.8667C10.7333 48.4667 8.83376 45.6444 7.43465 42.4C6.03554 39.1556 5.33509 35.6889 5.33331 32C5.33331 28.3111 6.03376 24.8444 7.43465 21.6C8.83554 18.3556 10.7351 15.5333 13.1333 13.1333C15.5333 10.7333 18.3555 8.83378 21.6 7.43467C24.8444 6.03556 28.3111 5.33511 32 5.33334C35.6889 5.33334 39.1555 6.03378 42.4 7.43467C45.6444 8.83556 48.4666 10.7351 50.8666 13.1333C53.2667 15.5333 55.1671 18.3556 56.568 21.6C57.9689 24.8444 58.6684 28.3111 58.6666 32C58.6666 35.6889 57.9662 39.1556 56.5653 42.4C55.1644 45.6444 53.2649 48.4667 50.8666 50.8667C48.4666 53.2667 45.6444 55.1671 42.4 56.568C39.1555 57.9689 35.6889 58.6684 32 58.6667Z" fill="white"/>
</svg>
